<?xml version="1.0" standalone="no"?>
<!DOCTYPE svg PUBLIC "-//W3C//DTD SVG 1.1//EN" "http://www.w3.org/Graphics/SVG/1.1/DTD/svg11.dtd" >
<!--
2013-9-30: Created.
-->
<svg>
<metadata>
Created by iconfont
</metadata>
<defs>

<font id="iconfont" horiz-adv-x="1024" >
  <font-face
    font-family="iconfont"
    font-weight="500"
    font-stretch="normal"
    units-per-em="1024"
    ascent="896"
    descent="-128"
  />
    <missing-glyph />
    
    <glyph glyph-name="shandian1" unicode="&#59589;" d="M395.765333 309.429333h-171.733333c-22.421333 0-37.888 22.442667-29.909333 43.381334L364.768 800.725333A32 32 0 0 0 394.666667 821.333333h287.957333c22.72 0 38.208-23.018667 29.632-44.064l-99.36-243.882666h187.050667c27.509333 0 42.186667-32.426667 24.042666-53.098667l-458.602666-522.56c-22.293333-25.408-63.626667-3.392-54.976 29.28l85.354666 322.421333z"  horiz-adv-x="1024" />

    
    <glyph glyph-name="shandian" unicode="&#59574;" d="M395.765333 309.429333h-171.733333c-22.421333 0-37.888 22.442667-29.909333 43.381334L364.768 800.725333A32 32 0 0 0 394.666667 821.333333h287.957333c22.72 0 38.208-23.018667 29.632-44.064l-99.36-243.882666h187.050667c27.509333 0 42.186667-32.426667 24.042666-53.098667l-458.602666-522.56c-22.293333-25.408-63.626667-3.392-54.976 29.28l85.354666 322.421333zM416.714667 757.333333L270.453333 373.418667h166.869334a32 32 0 0 0 30.933333-40.181334l-61.130667-230.954666 322.176 367.114666H565.312c-22.72 0-38.208 23.018667-29.632 44.064l99.36 243.882667H416.714667z"  horiz-adv-x="1024" />

    
    <glyph glyph-name="shandian-shi" unicode="&#58972;" d="M749.25056 515.28704a40.96 40.96 0 0 1-35.27168 20.1472h-125.47072l145.41824 233.98912a40.94464 40.94464 0 0 1 1.00864 41.51808 40.93952 40.93952 0 0 1-35.79904 21.05856h-307.2a40.96 40.96 0 0 1-40.25344-33.3824l-81.92-435.04128a40.94976 40.94976 0 0 1 8.72448-33.72032 40.94976 40.94976 0 0 1 31.52896-14.8224h116.61824l-39.13728-333.30176a40.96 40.96 0 0 1 76.53376-24.58112l285.78816 517.51424a40.9344 40.9344 0 0 1-0.56832 40.62208z"  horiz-adv-x="1024" />

    
    <glyph glyph-name="yqfwodekong" unicode="&#58992;" d="M856.60672-34.01728 167.39328-34.01728l-4.63872 2.67776c-2.72896 1.57696-26.99264 15.73888-38.83008 25.57952-19.49696 16.16896-29.98272 38.89664-29.52192 63.96416l0.09216 6.72768c0.12288 13.47072 0.256 27.41248 4.02432 41.62048 8.832 33.46944 33.65376 55.16288 58.32192 74.54208 32.29696 25.39008 70.4512 46.9248 123.70944 69.83168 25.36448 10.90048 52.47488 21.36064 82.88256 31.90784 13.0304 4.5312 26.64448 18.69824 34.67264 36.08064 6.35392 13.7472 8.23296 27.43808 5.16096 37.08928l-1.4848 1.75104c-36.16768 43.85792-64.93184 82.78528-78.54592 150.33856-10.94656 54.27712-9.37984 105.55392 4.66432 152.41216 21.51936 71.82848 67.9936 118.53312 134.36928 135.05536 10.02496 2.49856 19.75808 4.25472 29.40928 5.27872l0 1.11616 40.6272 0.05632 0-1.17248c9.63584-1.024 19.39456-2.78016 29.42464-5.29408 66.36544-16.50688 112.82432-63.21152 134.36416-135.04 14.02368-46.848 15.59552-98.11456 4.67456-152.3968-13.66016-67.584-42.40896-106.50624-78.57664-150.3488l-1.31584-1.5616c-0.06144-0.05632-0.09728-0.11264-0.13824-0.1792-3.08736-9.728-1.19296-23.3984 5.15072-37.09952 8.02816-17.39776 21.632-31.54944 34.66752-36.06528 30.32064-10.55232 57.4208-20.992 82.8928-31.92832 53.248-22.90176 91.38688-44.4416 123.70944-69.83168 23.57248-18.51904 49.46944-41.06752 58.31168-74.56256 3.74272-14.14656 3.88608-28.06272 4.0192-41.50784l0.1024-6.8096c0.46592-25.07264-10.03008-47.7952-29.54752-63.98464-11.83232-9.82016-36.06528-23.99232-38.79936-25.56416L856.60672-34.01728 856.60672-34.01728 856.60672-34.01728zM511.91808 762.14272l-0.26624 0c-12.98432-0.06656-25.99424-1.77152-39.77728-5.21728-52.78208-13.12768-88.41728-49.41824-105.9328-107.87328-12.30848-41.07264-13.5424-84.61312-3.76832-133.06368 10.90048-54.0416 30.47936-84.6592 70.24128-132.8896 2.47296-2.86208 5.46304-6.33344 7.38304-11.26912 7.69024-19.88608 5.63712-45.25568-5.64224-69.65248-12.71808-27.52-34.28864-48.80384-57.70752-56.95488-29.49632-10.24-55.7312-20.352-80.22528-30.88384-49.97632-21.47328-85.39648-41.40032-114.88256-64.56832-20.16256-15.82592-38.72256-31.8208-44.43136-53.41696-2.48832-9.39008-2.59072-20.2752-2.69312-31.80032l-0.09216-7.06048c-0.24064-13.09696 4.84864-24.05888 15.15008-32.59904 6.50752-5.4016 20.4032-14.04928 28.83072-19.0976l548.45952 0.2048 119.31136-0.2048c8.4224 5.04832 22.34368 13.7216 28.80512 19.08736 10.32704 8.55552 15.42656 19.52256 15.17568 32.59904l-0.10752 7.14752c-0.09728 11.48928-0.2048 22.3488-2.69312 31.69792-5.69856 21.62176-24.2688 37.61664-44.42112 53.44256-29.4912 23.16288-64.91648 43.08992-114.8672 64.5632-24.576 10.57792-50.83136 20.68992-80.24064 30.91456-23.40864 8.12032-44.98432 29.40928-57.70752 56.92416-11.26912 24.40192-13.33248 49.77664-5.65248 69.632 1.86368 4.91008 4.90496 8.41216 6.72256 10.50112 40.42752 49.00864 60.01664 79.64672 70.92224 133.6832 9.75872 48.46592 8.54016 91.99104-3.77856 133.06368-17.52064 58.44992-53.14048 94.74048-105.9072 107.85792-13.79328 3.456-26.80832 5.16096-39.79776 5.22752L511.91808 762.1376 511.91808 762.14272 511.91808 762.14272zM511.91808 762.14272"  horiz-adv-x="1024" />

    
    <glyph glyph-name="zhichisuishituiguoqitui" unicode="&#58893;" d="M512 896c-281.6 0-512-230.4-512-512 0-281.6 230.4-512 512-512 123.733333 0 243.2 42.666667 337.066667 123.733333l-29.866667 34.133333c-85.333333-72.533333-196.266667-115.2-307.2-115.2-260.266667 0-469.333333 209.066667-469.333333 469.333333s209.066667 469.333333 469.333333 469.333333 469.333333-209.066667 469.333333-469.333333c0-89.6-25.6-174.933333-72.533333-251.733333l34.133333-21.333333c51.2 81.066667 81.066667 174.933333 81.066667 273.066667C1024 665.6 793.6 896 512 896zM281.6 384 238.933333 354.133333 260.266667 320 277.333333 332.8 465.066667 174.933333 759.466667 550.4 725.333333 576 460.8 234.666667Z"  horiz-adv-x="1024" />

    
    <glyph glyph-name="gouwuche" unicode="&#58898;" d="M939.877067 611.051179c15.978926-19.196201 22.375613-44.790112 19.177782-70.385047L907.912052 201.538365c-6.390547-41.591257-44.75225-73.583902-89.5045-73.583902H332.549955c-44.75225 0-83.113953 38.392402-89.5045 86.381369l-51.142797 371.121436-28.766161 156.766416c-3.198855 15.996322-15.986089 25.594935-28.773323 25.594935h-38.355563c-19.177781 0-31.965016 15.996322-31.965016 31.993668s12.787234 31.993668 31.965016 31.993669h38.355563c47.951105 0 86.305645-35.192523 92.703355-79.982636l28.76616-156.766417 54.340629-371.121435c0-12.797467 12.780071-28.79379 25.567306-28.79379h485.86476c12.787234 0 25.574469 9.597589 25.574468 19.196201l47.943942 335.928912c3.198855 9.597589 0 15.996322-3.197832 19.196201-3.191692 3.198855-9.589402 6.398734-15.978926 6.398734h-524.219299c-19.177781 0-31.965016 12.797467-31.965016 31.993668s12.787234 31.993668 31.965016 31.993668h524.219299c25.575492-0.004093 47.944965-9.601682 63.930031-28.797883zM259.025405-0.019187c0 35.338856 28.622898 63.986313 63.930031 63.986313s63.930031-28.647457 63.930032-63.986313c0-35.338856-28.622898-63.986313-63.930032-63.986313s-63.930031 28.647457-63.930031 63.986313z m508.240373 0c0 35.338856 28.622898 63.986313 63.930031 63.986313s63.930031-28.647457 63.930032-63.986313c0-35.338856-28.622898-63.986313-63.930032-63.986313s-63.930031 28.647457-63.930031 63.986313z"  horiz-adv-x="1024" />

    
    <glyph glyph-name="licai" unicode="&#59144;" d="M512.799 14.896c-52.165 0-102.58 10.681-149.845 31.744-60.292 26.892-112.413 69.641-150.734 123.63-44.342 62.459-67.78 136.105-67.78 212.977 0 203.109 165.245 368.351 368.358 368.351s368.357-165.243 368.357-368.354c0.001-203.107-165.243-368.348-368.356-368.348z m0 686.702c-175.543 0-318.358-142.812-318.358-318.351 0-66.44 20.247-130.078 58.551-184.034 33.145-46.694 78.208-83.661 130.322-106.905 40.811-18.188 84.378-27.411 129.485-27.411 175.542 0 318.357 142.81 318.357 318.347 0 175.541-142.814 318.354-318.357 318.354z m123.304-437.383H384.075c-13.807 0-25 11.192-25 25s11.193 25 25 25h252.028c13.807 0 25-11.192 25-25s-11.194-25-25-25z m-173.676 94.776l0.406 0.533-77.001 0.191c-13.807 0.034-24.972 11.255-24.938 25.062s11.275 24.982 25.062 24.938l74.669-0.186-83.794 111.938c-8.274 11.053-6.021 26.722 5.032 34.996 11.052 8.273 26.721 6.022 34.996-5.032l95.195-127.168 96.797 127.317c8.355 10.992 24.041 13.127 35.032 4.771s13.127-24.041 4.771-35.032l-85.08-111.905 72.425 0.302h0.106c13.759 0 24.94-11.124 24.998-24.896 0.058-13.808-11.089-25.047-24.896-25.104l-75.599-0.315 0.089-0.119-17.954 0.045-80.316-0.336zM511.338 166.777l-0.221 0.001c-13.807 0.119-24.902 11.409-24.783 25.216l1.667 192.424c0.119 13.732 11.289 24.784 24.995 24.784l0.221-0.001c13.807-0.12 24.901-11.409 24.782-25.215l-1.666-192.425c-0.119-13.733-11.289-24.784-24.995-24.784z"  horiz-adv-x="1024" />

    
    <glyph glyph-name="shangjia" unicode="&#58922;" d="M959 511.6c0 2.6-0.4 5.1-1.1 7.6l-61.3 205.3c-6 22.1-24.2 89.5-95.4 89.5H219.3c-47.2 0-82-32.9-95.3-89.1l-58.9-206c-0.7-2.4-1-4.8-1-7.3 0-61.8 33.9-115.7 84-144.5v-330.5c0-44.8 36.4-81.2 81.2-81.2h564.6c44.8 0 81.2 36.4 81.2 81.2V367c50 28.8 83.9 82.8 83.9 144.6zM822.1 36.5c0-15.6-12.7-28.3-28.3-28.3H229.2c-15.6 0-28.3 12.7-28.3 28.3V347.7c9.7-1.8 19.7-2.8 29.9-2.8 56.7 0 109.8 29.2 140.3 76.6 30.7-47.7 83.6-76.6 140.3-76.6 56.8 0 109.9 29.6 140.3 76.7 30.4-47.1 83.5-76.7 140.3-76.7 10.2 0 20.2 1 29.9 2.8v-311.2z m-29.9 361.2c-44.1 0-83.4 24.7-102.6 64.4-11.5 23.7-26.8 28.7-37.7 28.7s-26.2-5-37.7-28.8c-19.3-39.7-58.6-64.4-102.6-64.4-41.2 0.1-79.1 22.3-99.3 58.1-13.1 23.2-29.3 28.1-40.6 28.1-11.4 0-28-5.1-42.1-29.3-20.4-35.1-58-56.8-98.6-56.9-61.6 0-112 49.2-113.9 110.4l58.2 203.3c7.8 32.9 22.7 49.6 44.2 49.6h581.7c16.2 0 31.8-3.9 44.6-51.1l60.4-202c-2.1-61-52.4-110.1-114-110.1z m0 0"  horiz-adv-x="1024" />

    
    <glyph glyph-name="gongyi" unicode="&#59228;" d="M148.4 488.9c1.9 71.1 30.7 142.2 130.6 142.2 99.9 0 159.8-52 215.2-182.5 12.9 105.9 22.6 202-143.3 260-110.3 38.6-236 3-300.8-94.3-18.1-27.4-33.3-59.6-43.8-96.6-23.1-157.5 144-290.9 326.6-367-113.6 103.5-180.6 211.4-184.5 338.2zM515.4 625.3C562 700 631 758.4 767.1 767.5c-27.5 29.9-136.4 57.6-182.5 51.9-46.1-5.8-105.1-59.3-147.9-103.8 44.9-14.8 70.1-45.7 78.7-90.3zM1023.6 554.2C1015 709.8 874.3 826.2 726.8 828c119.8-42 200.6-107.4 175.8-236.3-22.3-158-163.3-297.2-377.6-441 21.6-122.2 35-217.3 89.3-210.4 36.7 86.3 98.6 174.4 196 265.1 121.1 98.1 221.4 231.6 213.3 348.8zM396.3 431.3c-3.8-20 2.7-36 19.2-48-22 3.2-42.8 1.1-61.5-9.6 59.6-42.3 101.8-84.5 176.8-67.2 74.9 17.2-13.8 89.1-134.5 124.8z"  horiz-adv-x="1024" />

    
    <glyph glyph-name="jiasuqi" unicode="&#58993;" d="M511.96388 895.96388c-282.710688 0-511.89164-229.217072-511.89164-512.03612 0-282.602328 229.180952-511.89164 511.89164-511.89164 282.746808 0 512 229.289312 512 511.89164C1023.96388 666.710688 794.710688 895.96388 511.96388 895.96388zM512-83.53636700000004c-258.149136 0-467.428007 209.314991-467.428007 467.464127 0 258.185256 209.278871 467.464127 467.428007 467.464127 258.113016 0 467.428007-209.278871 467.428007-467.464127C979.428007 125.77862400000004 770.149136-83.53636700000004 512-83.53636700000004zM644.95746 728.042328L254.464903 383.60268099999996 537.283951 336.14109299999996 397.716543 42.991746000000035 765.923104 426.151958 504.161975 462.560847Z"  horiz-adv-x="1024" />

    
    <glyph glyph-name="wangshangyinhang" unicode="&#58953;" d="M861.59375 726.1875h-69.9375c-25.78125 0.09375-50.71875-9.28125-70.03125-26.25L432.40625 445.40625c-12.375-10.875-28.78125-17.53125-46.78125-17.53125-14.34375 0-28.40625 4.3125-40.21875 12.46875-0.09375 0-0.09375-0.09375-0.09375-0.09375l158.71875-110.34375c11.8125-9 26.625-14.34375 42.75-14.34375 15.75 0 30.28125 5.0625 41.90625 13.6875h0.09375l111.9375 82.125c5.8125 4.3125 13.125 6.84375 20.90625 6.84375 13.3125 0.09375 25.59375-7.5 31.5-19.40625L639.40625 243.28125c-14.15625-17.4375-22.59375-39.5625-22.59375-63.65625v-103.59375c0-18.9375 15.65625-34.21875 34.96875-34.21875h209.71875c1.5 0 3 0.09375 4.59375 0.1875 36.46875 2.34375 65.34375 31.96875 65.34375 68.25V657.75c0 37.78125-31.3125 68.4375-69.84375 68.4375zM233.65625 461.8125l0.09375 0.09375c4.5 14.71875 18.1875 24.84375 33.5625 24.75 7.21875 0 14.25-2.15625 20.25-6.28125l44.90625-30.9375c11.34375-7.21875 24.46875-11.0625 37.875-11.0625 16.875 0 33.1875 6 46.03125 16.875l120 105.9375-208.59375 146.25c-17.0625 11.8125-37.875 18.75-60.375 18.75H162.5c-38.625 0-69.9375-30.65625-69.9375-68.4375v-547.5c0-36.28125 28.875-65.90625 65.4375-68.25 1.5-0.09375 3-0.1875 4.5-0.1875h244.6875c19.3125 0 34.875 15.1875 34.96875 34.125V178.6875c0 24-8.53125 47.15625-24.09375 65.4375L233.65625 461.8125z"  horiz-adv-x="1024" />

    
    <glyph glyph-name="right-copy" unicode="&#58880;" d="M348.99379407 378.31054615999994l422.93654668 422.9437849c17.77417782 17.76259666 17.77417782 46.59388232 1e-8 64.35792663-17.76259666 17.77417782-46.59388232 17.77417782-64.35792664 0l-455.12057675-455.12347204c-17.77852076-17.76259666-17.77852076-46.59388232 0-64.35792662l455.1220244-455.12202442c8.88419362-8.88853654 20.53194038-13.33425247 32.17823949-13.33425246s23.29549351 4.44571592 32.17823949 13.33425246c17.77852076 17.76259666 17.77852076 46.59388232 0 64.35792664l-422.93944197 422.94523255z"  horiz-adv-x="1024" />

    
    <glyph glyph-name="arrow-left" unicode="&#58881;" d="M624.601 384.246l-292.155-292.16c-12.27799999-12.27-12.278-32.186 1e-8-44.457 12.27-12.27799999 32.186-12.278 44.45699999 0l314.38699999 314.389c12.28099999 12.27 12.281 32.186 1e-8 44.457l-314.388 314.38800001c-6.137 6.14-14.183 9.211-22.228 9.21099999s-16.092-3.071-22.228-9.211c-12.28099999-12.27-12.281-32.186 0-44.457l292.157-292.161z"  horiz-adv-x="1024" />

    
    <glyph glyph-name="yue" unicode="&#58944;" d="M550.4 432.64l117.76 117.76c15.36 15.36 15.36 38.4 0 53.76-15.36 15.36-38.4 15.36-53.76 0l-102.4-102.4-94.72 94.72c-15.36 15.36-38.4 15.36-53.76 0-15.36-15.36-15.36-38.4 0-53.76l110.08-110.08v-17.92h-125.44c-20.48 0-38.4-17.92-38.4-38.4s17.92-38.4 38.4-38.4h125.44v-38.4h-99.84c-20.48 0-38.4-17.92-38.4-38.4s17.92-38.4 38.4-38.4h99.84v-76.8c0-20.48 17.92-38.4 38.4-38.4s38.4 17.92 38.4 38.4v76.8h99.84c20.48 0 38.4 17.92 38.4 38.4s-17.92 38.4-38.4 38.4h-99.84v38.4h125.44c20.48 0 38.4 17.92 38.4 38.4s-17.92 38.4-38.4 38.4h-125.44v17.92zM512-128C230.4-128 0 102.4 0 384S230.4 896 512 896s512-230.4 512-512-230.4-512-512-512z"  horiz-adv-x="1024" />

    
    <glyph glyph-name="koubei" unicode="&#58927;" d="M957.647412 700.783196c-0.192048 40.234059-32.936234 72.882221-73.170293 72.88222H171.498875c-40.906227 0-73.074269-31.975994-73.170293-72.88222-0.48012-10.946737-8.354089-191.951988 0.096024-253.791448C112.348087 343.189797 213.749437 160.168042 387.84096 91.030758v-47.435859c0-26.982746 21.893473-48.876219 48.876219-48.876219h3.648913c36.20105 0 131.36084 5.76144 233.818454 59.054763 112.540135 58.574644 198.577644 154.502626 255.711928 285.671418 11.522881 28.03901 25.062266 74.130533 28.807202 107.834959 7.297824 62.895724-0.576144 242.556639-1.056264 253.503376zM416.744186 146.340585c-162.952738 60.687172-247.933983 231.705926-257.344336 309.965492-5.76144 45.803451-2.688672 183.501875 0.096024 243.612903v0.576144c0 6.625656 5.377344 12.003001 12.003001 12.003001H884.381095c6.625656 0 12.003001-5.377344 12.003001-12.003001v-1.824456c2.976744-64.432108 6.913728-198.289572 0.096024-243.612904-3.648912-28.99925-15.651913-70.193548-24.582146-91.510877-118.397599-273.284321-342.325581-305.260315-422.793698-307.468867v79.027756L416.744186 146.340585z m0 0M750.907727 335.603901c9.890473 13.827457 6.433608 32.648162-7.777945 42.826707-5.185296 3.744936-11.234809 5.665416-17.476369 5.665416-9.794449 0-19.300825-4.993248-25.446361-13.539385-41.962491-60.687172-110.523631-96.888222-183.309828-96.888222-122.622656 0-222.487622 99.768942-222.487622 222.487622 0 16.612153-14.019505 30.631658-30.631658 30.631658-16.612153 0-30.631658-14.019505-30.631657-30.631658 0-156.423106 127.231808-283.654914 283.654913-283.654914 93.527382-0.096024 181.005251 46.091523 234.106527 123.102776z m14.787697 129.92048c8.354089-4.8012 17.860465-7.393848 27.462866-7.393848s19.108777 2.496624 27.462865 7.393848c16.900225 9.794449 27.462866 28.03901 27.462866 47.531883 0 30.247562-24.67817 54.925731-54.925731 54.925731-30.247562 0-54.925731-24.67817-54.925732-54.925731 0-19.492873 10.562641-37.737434 27.462866-47.531883z m0 0"  horiz-adv-x="1056" />

    
    <glyph glyph-name="renzheng-zhimaxinyong" unicode="&#58899;" d="M512.034712 896c-84.835797 0-173.559322-46.973831-216.385085-121.066305s0-171.546034 0-171.546034 37.046237-70.751458 60.875932-98.399458c15.472814-17.954712 229.705763-217.357017 220.064543-309.621152 9.64122-99.215186-73.406915-179.633898-175.858983-183.729898-102.452068 4.078644-185.508881 84.514712-188.407322 183.729898 2.898441 76.20122 78.049627 173.108068 139.229288 213.97261-17.815864 13.884746-86.875119 99.866034-114.228068 152.966508s-22.146169 46.748203-27.587254 70.985763C129.405831 518.951051 66.785627 419.171797 66.785627 303.156068 66.785627 65.032678 266.109831-128 512.034712-128s445.179661 193.032678 445.179661 431.156068S742.070237 896 512.034712 896z m0 0"  horiz-adv-x="1024" />

    
    <glyph glyph-name="zhangdan" unicode="&#58882;" d="M811.13088 828.24192H209.5616A139.264 139.264 0 0 1 69.70368 688.384v-672.59392c0-77.7216 62.1568-139.8784 139.85792-139.8784h601.56928a139.264 139.264 0 0 1 139.83744 139.8784V688.384A139.264 139.264 0 0 1 811.13088 828.24192z m-79.90272-771.52256H287.25248c-22.19008 0-37.7344 15.55456-37.7344 35.52256s17.75616 35.52256 37.7344 35.52256h443.97568c19.97824 0 35.51232-15.55456 37.72416-35.52256 0-19.968-17.74592-35.52256-37.72416-35.52256z m0 203.24352H287.25248c-22.19008 0-37.7344 15.53408-37.7344 35.51232 0 19.968 17.75616 35.51232 37.7344 35.51232h443.97568c19.97824 0 35.51232-15.54432 37.72416-35.51232 0-19.98848-17.74592-35.51232-37.72416-35.51232z m0 219.76064H287.25248c-22.19008 0-37.7344 15.53408-37.7344 35.51232 0 19.968 17.75616 35.51232 37.7344 35.51232h443.97568c19.97824 0 35.51232-15.54432 37.72416-35.51232 0-19.98848-17.74592-35.51232-37.72416-35.51232zM666.84928 741.66272H364.9536c-39.96672 0-73.25696 33.30048-73.25696 73.25696C289.47456 854.87616 322.77504 888.17664 364.9536 888.17664h301.89568c39.96672 0 73.24672-33.30048 73.24672-73.25696v-2.23232c0-19.968-8.86784-37.7344-22.19008-51.0464-13.32224-13.312-31.0784-19.97824-51.05664-19.97824"  horiz-adv-x="1024" />

    
    <glyph glyph-name="huabei" unicode="&#59096;" d="M523.2128 591.9744c42.2912-11.776 81.2544 9.8304 89.7024 51.0464 8.448 41.216-20.3264 84.4288-60.928 96.2048-42.2912 11.776-81.2544-9.8304-89.7024-51.0464-8.448-39.2704 20.3264-82.432 60.928-96.2048z m421.5808-35.584a443.5968 443.5968 0 0 1-31.9488 71.68 467.456 467.456 0 0 1-143.872 158.6176c-10.6496 6.8608-30.208 18.7904-30.208 18.7904-108.3392 58.0096-163.328 46.08-161.5872 1.6896 0-32.4096 30.208-40.96 56.832-52.8896 90.5728-42.6496 138.496-109.1584 113.664-162.048-23.0912-49.5104-106.5472-66.56-193.5872-35.84C465.3056 588.8 348.0576 665.6 332.0832 578.56c-14.1824-73.3696 97.6896-75.0592 213.0944-194.4576 49.7664-51.2 62.1568-139.9296 33.792-211.5584-62.208-107.52-243.3536-81.92-323.2256 5.12-94.1568 102.4-81.7152 206.4384-76.3904 231.9872a373.1968 373.1968 0 0 0 47.9744 121.1392c15.9744 29.0304 24.832 47.7696 24.832 69.9392 0 37.5296-26.624 61.44-62.1568 63.1296C147.456 665.6 115.4048 640 97.6384 600.7296a471.9616 471.9616 0 0 1-35.4816-305.3568c0-1.6896 0-3.4304 1.7408-5.12 1.792-10.24 5.3248-20.48 7.168-30.72 0 0 3.4816-17.0496 14.1824-39.2192l10.6496-25.6v-1.6896c101.2224-218.368 348.0576-325.8368 575.3856-240.5376 237.9776 88.6784 360.5504 359.936 273.5104 603.904z"  horiz-adv-x="1024" />

    
    <glyph glyph-name="zhuce-yinhangkahao" unicode="&#59133;" d="M143.36 195.584a77.824 77.824 0 0 1 77.66016-77.824h581.98016A77.824 77.824 0 0 1 880.64 195.584V442.44992H143.36V195.584z m608.256 51.95776h51.75296V195.584H751.616v52.03968z m-64.69632 0h51.75296V195.584h-51.73248v52.03968z m-64.73728 0h51.77344V195.584h-51.75296v52.03968zM803.00032 650.24H221.02016A77.824 77.824 0 0 1 143.36 572.416v-64.94208h737.28V572.416a77.824 77.824 0 0 1-77.63968 77.824z m0 0"  horiz-adv-x="1024" />

    
    <glyph glyph-name="xiazai17" unicode="&#58883;" d="M963.80969 21.085491000000047L746.640896 242.94338600000003c-3.587891 3.66551-7.710925 6.443725-12.110336 8.352256 46.655488 62.60183 74.359501 140.751667 74.359501 225.526477 0 205.788877-163.237376 372.568371-364.609741 372.568371C242.909082 849.39049 79.67785 682.609971 79.67785 476.822016c0-205.792973 163.231232-372.569395 364.603597-372.569395 92.421632 0 176.807936 35.134157 241.069056 93.044122 1.778586-3.55799 4.115866-6.89705 7.027302-9.871872l217.115546-221.85687c14.970573-15.300506 39.292518-15.300506 54.316237 0C978.780262-19.131493999999975 978.780262 5.786010000000033 963.80969 21.085491000000047zM444.281446 163.04977899999994c-169.564672 0-307.06176 140.4928-307.06176 313.772237 0 173.332685 137.496064 313.766195 307.06176 313.766195 169.570816 0 307.06176-140.433408 307.06176-313.766195C751.343206 303.54257900000005 613.851238 163.04977899999994 444.281446 163.04977899999994z"  horiz-adv-x="1024" />

    
    <glyph glyph-name="wodekefu" unicode="&#58884;" d="M659.3 253.10000000000002c0 0.4 0 0.7 0 1.1-28.3-42.4-83.5-70.2-145.9-68-62.4 2.2-115.5 33.7-140.8 78 0-0.4 0-0.7-0.1-1.1-2.8-79.5 59.1-146.1 138.3-148.9C590.1 111.5 656.5 173.70000000000005 659.3 253.10000000000002zM943 528.9C902.7 717.9 738.6 862.6 537.3 869.6c-225.9 7.9-417.2-160.4-442.5-382C43 481.5 2 438.2 0.1 384.2-2 324.6 44.4 274.6 103.8 272.5c6.9-0.2 13.7 0.2 20.3 1.2 30.7-74.9 81.8-139.4 146.6-186.3-33.4 66.6-51.6 147.9-48.6 235 1 28.8 14.7 115.4 85.7 141.1 52.6 19 127.9-12.9 225.8-8.2 91.4 3 166.6 74 174.2 165.5 68.4-74.8 110.2-190.5 105.7-319-3-87.1-26.9-166.9-64.8-231 89.2 55.6 157 143.1 187 247.2 14.9 2.7 28.7 8.5 40.8 16.7-43.3-192.5-204.2-338-400.7-360.7-5.8 27.7-29.6 49-59.1 50-34.6 1.2-63.7-26-64.9-60.8-1.2-34.8 25.9-63.9 60.5-65.1 27-0.9 50.4 15.5 60.1 39.1 234.4 23.4 422 204.2 449 463.5 1.4 6.4 2.3 12.9 2.5 19.7C1025.7 472.2 991 516.7 943 528.9z"  horiz-adv-x="1024" />

    
    <glyph glyph-name="mayibaoxian" unicode="&#58885;" d="M456.712216 522.4658019999999q-1.789886-12.371274 10.528744-12.318631a33.060256 33.060256 0 0 1 3.842991 0h167.828179c9.686444-1.316093 13.792655 2.000461 12.423918 10.054951v46.484404a10.844606 10.844606 0 0 1-12.423918 12.108056H471.189239q-16.530128 0-14.477023-12.108056zM398.804124 594.008617q-1.947818 42.694057 46.010611 42.694057h216.52362q52.22257 2.000461 48.063716-44.747162v-91.547429q4.158854-46.800267-43.852219-42.694057H577.792771v-26.321859h131.6093q25.953354-2.053105 25.953354-28.954046-2.000461-26.900941-27.953815-28.954046h-115.816184q47.905785-64.120051 129.819413-128.240102 17.951508-18.635877 6.001384-35.166004-21.952431-26.900941-55.90763 0-37.956122 24.795192-93.863753 90.968347v-101.286517q-2.000461-26.900941-27.953815-31.007151-27.953815 0-29.954276 26.900941v107.498476q-45.905324-66.173156-91.863291-95.127202-23.952893-18.635877-47.905786 0-17.951508 20.688982 6.001385 41.377964a579.765286 579.765286 0 0 1 113.973653 124.081248H408.069419q-29.954277 2.053105-31.954738 28.954046 2.000461 26.900941 31.954738 28.954046H519.88468v26.321859H451.447844q-58.487173-6.106671-52.64372 42.694057z m-79.334086 39.535434q5.685522 20.741626 28.743471 20.741625h4.316785q26.900941-4.10621 24.847836-28.796115-12.423918-63.751545-20.688982-94.758695v-333.024172q-2.053105-26.74301-28.954046-28.796114-26.900941 0-28.954045 26.743009v215.839251q-37.21911-18.530589-45.484174 18.477946 0 16.477484 14.477023 41.114745 33.1129 63.751545 51.696132 162.45852z m-15.793115-525.384324s195.150269-140.032295 208.311199-140.032295 208.311199 140.137582 208.311199 140.137582a395.354336 395.354336 0 0 1 157.562653 315.862319V638.7557790000001a61.909014 61.909014 0 0 1-42.114976 59.066253L537.15182 795.949926a80.176385 80.176385 0 0 1-50.38004 0L188.229245 697.822032a61.909014 61.909014 0 0 1-42.114976-59.066253V423.758827a395.354336 395.354336 0 0 1 157.562654-315.651744zM467.820041 888.866092a140.295513 140.295513 0 0 0 88.336162 0l327.496581-107.709051A123.133661 123.133661 0 0 0 967.356298 663.656258v-236.001796a490.165675 490.165675 0 0 0-195.939925-391.827206l-9.370582-6.685752-24.584617-17.530359c-25.532204-18.10944-51.274983-36.271523-75.596382-53.222801l-6.001384-4.158854c-104.287209-72.332471-119.606531-82.22949-143.980574-82.22949s-38.219341 9.107364-143.980573 82.387421l-5.738166 4.000923c-24.374042 16.951278-50.169465 35.060717-75.701669 53.170157L261.930453 29.141504000000054l-10.160238 7.422764A489.586594 489.586594 0 0 0 56.619946 427.654462V663.656258A123.133661 123.133661 0 0 0 140.376104 781.209685z"  horiz-adv-x="1024" />

    
    <glyph glyph-name="zhifubao" unicode="&#58886;" d="M512-128c-65.828571 0-138.971429 14.628571-197.485714 43.885714-58.514286 29.257143-117.028571 65.828571-160.914286 109.714286-43.885714 43.885714-80.457143 102.4-109.714286 160.914286C14.628571 245.028571 0 318.171429 0 384c0 65.828571 14.628571 138.971429 43.885714 197.485714 29.257143 58.514286 65.828571 117.028571 109.714286 160.914286C197.485714 786.285714 256 822.857143 314.514286 852.114286 373.028571 881.371429 446.171429 896 512 896c73.142857 0 138.971429-14.628571 197.485714-43.885714 58.514286-29.257143 117.028571-65.828571 160.914286-109.714286 43.885714-43.885714 80.457143-102.4 109.714286-160.914286 29.257143-58.514286 43.885714-131.657143 43.885714-197.485714 0-65.828571-14.628571-138.971429-43.885714-197.485714-29.257143-58.514286-65.828571-117.028571-109.714286-160.914286-43.885714-43.885714-102.4-80.457143-160.914286-109.714286-58.514286-29.257143-124.342857-43.885714-197.485714-43.885714zM512 822.857143c-58.514286 0-117.028571-14.628571-168.228571-36.571429-51.2-21.942857-102.4-51.2-138.971429-95.085714-43.885714-36.571429-73.142857-87.771429-95.085714-138.971429C87.771429 501.028571 73.142857 442.514286 73.142857 384c0-58.514286 14.628571-117.028571 36.571429-168.228571 21.942857-51.2 51.2-102.4 95.085714-138.971429 43.885714-43.885714 87.771429-73.142857 138.971429-95.085714 51.2-21.942857 109.714286-36.571429 168.228571-36.571429 58.514286 0 117.028571 14.628571 168.228571 36.571429 51.2 21.942857 102.4 51.2 138.971429 95.085714 43.885714 43.885714 73.142857 87.771429 95.085714 138.971429 21.942857 51.2 36.571429 109.714286 36.571429 168.228571 0 58.514286-14.628571 117.028571-36.571429 168.228571-21.942857 51.2-51.2 102.4-95.085714 138.971429-43.885714 43.885714-87.771429 73.142857-138.971429 95.085714C629.028571 808.228571 570.514286 822.857143 512 822.857143z m80.457143-497.371429c80.457143-29.257143 197.485714-65.828571 234.057143-65.828571v-117.028572S614.4 245.028571 570.514286 266.971429c-7.314286 0-7.314286 0-14.628572 7.314285-65.828571-73.142857-153.6-138.971429-299.885714-102.4-21.942857-7.314286-146.285714 117.028571-14.628571 212.114286 14.628571 7.314286 73.142857 58.514286 277.942857-21.942857 21.942857 21.942857 51.2 87.771429 51.2 95.085714H292.571429v21.942857h138.971428v58.514286H270.628571v21.942857h160.914286V640H512v-80.457143h175.542857v-21.942857H504.685714v-58.514286H658.285714s-21.942857-73.142857-65.828571-153.6z m-102.4-36.571428s7.314286 7.314286 7.314286 14.628571c-58.514286 29.257143-146.285714 65.828571-248.685715 36.571429-58.514286-29.257143-43.885714-117.028571 7.314286-131.657143 14.628571-7.314286 138.971429-43.885714 234.057143 80.457143z"  horiz-adv-x="1024" />

    
    <glyph glyph-name="yuebao" unicode="&#58887;" d="M398.517389 639.285221l235.342006 0 63.10627 86.570681c0 0 47.312562 57.732889-15.794731 83.421968-60.335157 24.580838-156.751067 22.655999-164.971285 22.452361-8.268314 0.203638-104.636129 2.128477-164.971285-22.452361-63.082734-25.688055-15.818267-83.421968-15.818267-83.421968L398.517389 639.285221zM621.095697 594.945363L406.997528 594.945363c0 0-283.274692-105.657388-283.274692-397.165602 0-254.790964 311.719534-262.703167 390.323776-260.686231 78.623685-2.015913 390.323776 5.895267 390.323776 260.686231C904.370389 489.287975 621.095697 594.945363 621.095697 594.945363zM592.014358 241.03082099999995l63.958684 0c14.856359 0 26.900673-11.93789 26.900673-26.894534 0-14.853289-12.170181-26.894534-27.00812-26.894534L551.712467 187.24175400000001l0-115.895567c0-15.084557-12.193717-27.313066-27.472702-27.313066-15.172561 0-27.472702 12.446473-27.472702 27.313066L496.767064 187.24175400000001l-97.339956 0c-14.915711 0-27.00812 11.93789-27.00812 26.894534 0 14.853289 11.965519 26.894534 26.721595 26.894534l97.626481 0 0 55.239092-96.52438 0c-15.366989 0-27.823696 12.325723-27.823696 27.76946 0 15.33629 12.554944 27.76946 27.823696 27.76946l62.394049 0-72.256674 72.256674c-9.638521 9.638521-9.674337 25.229614 0.069585 34.974559 9.677407 9.677407 25.282826 9.761318 34.974559 0.069585l83.372849-83.372849c6.481621-6.481621 8.599865-15.651468 6.342452-23.928992l5.38873 0c-1.397836 7.819083 0.924045 16.136515 6.953366 22.165836l84.854597 84.854597c9.863648 9.863648 25.746384 9.777691 35.595706-0.071631 9.917884-9.917884 9.881045-25.786293 0.070608-35.595706l-71.354118-71.353095 78.400604 0c15.366989 0 27.823696-12.325723 27.823696-27.76946 0-15.33629-12.554944-27.76946-27.823696-27.76946L551.712467 296.26889000000006l0-55.239092L592.014358 241.02979800000003z"  horiz-adv-x="1024" />

    
    <glyph glyph-name="xiaochengxu" unicode="&#58888;" d="M303.5136 387.1232l214.4768-125.824 202.0864 118.5536-214.4768 125.824-202.0864-118.5536z m-62.976 36.9664l480 281.6L562.176 798.72a98.8672 98.8672 0 0 1-100.352 0L184.6528 635.904a102.8608 102.8608 0 0 1-50.3552-88.832v-60.672l106.24-62.336z m-106.24-11.5968v-190.8992c0-36.6848 19.2-70.528 50.3552-88.832l57.1136-33.536 213.248 125.1072-320.7168 188.16z m434.2784 130.1504l229.4784-134.6304 91.648-53.76V547.072c0 36.6848-19.2 70.5536-50.3552 88.832l-55.8592 32.7936-214.912-126.08zM889.7024 280.32l-106.624 62.5664L304.7424 62.2592l157.0816-92.2368a98.8672 98.8672 0 0 1 100.352 0l277.1712 162.7648a102.8608 102.8608 0 0 1 50.3552 88.8064V280.32zM151.808 691.328l278.016 163.0976a162.1504 162.1504 0 0 0 164.352 0l278.016-163.0976a167.0656 167.0656 0 0 0 81.9968-144.2304v-326.1952c0-59.4688-31.232-114.432-81.9968-144.2304l-278.016-163.0976a162.1504 162.1504 0 0 0-164.352 0L151.808 76.672A167.04 167.04 0 0 0 69.8112 220.928V547.072c0 59.4688 31.232 114.432 81.9968 144.2304z"  horiz-adv-x="1024" />

    
    <glyph glyph-name="icon-" unicode="&#58889;" d="M268.02606186-38.30899283999997a117.44211993 117.44211993 0 0 0-117.28124029 117.2812403L150.74482157 689.0277525399999A117.44211993 117.44211993 0 0 0 268.02606186 806.30899284l488.02831609 0a117.44211993 117.44211993 0 0 0 117.2812403-117.2812403l0-609.97506528a117.44211993 117.44211993 0 0 0-117.2812403-117.28124029z m0 792.97562884a65.79976308 65.79976308 0 0 1-65.71932328-65.71932326l0-609.97506528a65.79976308 65.79976308 0 0 1 65.71932328-65.71932326l488.02831609 0a65.79976308 65.79976308 0 0 1 65.71932328 65.71932326L821.77370123 689.0277525399999a65.79976308 65.79976308 0 0 1-65.71932328 65.71932326zM318.94446042 358.17882159a25.82117841 25.82117841 0 1 0 0 51.56191701l386.11107916 0a25.82117841 25.82117841 0 1 0 0-51.56191701zM318.94446042 236.23207242a25.82117841 25.82117841 0 1 0 0 51.24015779l263.44037172 0a25.82117841 25.82117841 0 1 0 0-51.64235684zM318.94446042 480.52776979a25.82117841 25.82117841 0 1 0 0 51.64235684l386.11107916 0a25.82117841 25.82117841 0 1 0 0-51.64235684z"  horiz-adv-x="1024" />

    
    <glyph glyph-name="Vblue" unicode="&#58890;" d="M42.667 384c0-260.267 209.066-469.333 469.333-469.333S981.333 123.733 981.333 384 772.267 853.333 512 853.333 42.667 644.267 42.667 384zM593.067 187.733c-25.6-25.6-81.067-68.266-123.734-59.733-106.666 17.067-81.066 302.933-153.6 366.933C294.4 512 268.8 448 251.733 477.867c-8.533 17.066 29.867 76.8 55.467 102.4 21.333 25.6 46.933 34.133 81.067 21.333 76.8-34.133 46.933-294.4 115.2-337.067C524.8 251.733 674.133 448 665.6 524.8c-8.533 25.6-38.4 21.333-64 21.333-29.867 0 25.6 64 64 81.067 17.067 12.8 106.667 34.133 115.2-59.733 8.533-98.134-72.533-226.134-72.533-226.134-29.867-51.2-76.8-115.2-115.2-153.6z"  horiz-adv-x="1024" />

    
    <glyph glyph-name="pengyou" unicode="&#58891;" d="M784.04721778 118.94328888999996l-245.83281778 122.91640889 74.56540445 108.35285333c3.49525333 5.24288 5.24288 11.06830222 5.24288 17.47626667V540.12131555c0 112.43064889-90.29404445 200.39452445-205.05486223 200.39452445-115.34336 0-205.05486222-87.96387555-205.05486222-200.39452445v-172.43249777c0-6.40796445 1.74762667-12.81592889 5.82542222-18.05880889l76.31303111-107.77031111-256.90112-122.91640889c-11.06830222-5.24288-17.47626667-16.31118222-17.47626666-27.96202667v-109.51793777c0-17.47626667 13.98101333-30.87473778 30.87473778-30.87473778h724.09998222c17.47626667 0 30.87473778 13.98101333 30.87473778 30.87473778v109.51793777c-0.58254222 11.65084445-6.99050667 22.71914667-17.47626667 27.96202667z m-45.43829333-106.02268444H76.84096v58.83676444L348.88817778 202.24682667000002c8.15559111 4.07779555 14.56355555 11.65084445 16.89372444 20.38897778s0.58254222 18.05880889-4.66033777 25.63185777l-92.04167112 129.32437333V540.12131555c0 77.47811555 62.91456 138.64504889 143.30538667 138.6450489s143.30538667-60.58439111 143.30538667-138.6450489v-163.11182222l-89.12896-129.90691555c-5.24288-7.57304889-6.99050667-16.89372445-4.66033778-25.63185778 2.33016889-8.73813333 8.15559111-16.31118222 16.31118222-19.80643555l260.97891556-130.48945778-0.58254222-58.25422222zM992.01479111 195.83886222l-245.83281778 122.91640889L820.74737778 427.10812445c3.49525333 5.24288 5.24288 11.06830222 5.24288 17.47626666V617.01688889c0 112.43064889-90.29404445 200.39452445-205.05486223 200.39452444-22.13660445 0-44.27320889-3.49525333-65.24472888-9.90321778l19.22389333-59.41930666c14.56355555 4.66033778 30.29219555 6.99050667 46.02083555 6.99050666 80.39082667 0 143.30538667-60.58439111 143.30538667-138.64504888v-163.11182222L675.11182222 323.41560889000004c-5.24288-7.57304889-6.99050667-16.89372445-4.66033777-25.63185778 2.33016889-8.73813333 8.15559111-16.31118222 16.31118222-19.80643556l260.97891555-130.48945777v-59.41930667h-77.47811555v-62.33201778H978.03377778c17.47626667 0 30.87473778 13.98101333 30.87473777 30.87473778v109.51793778c0 13.39847111-6.40796445 24.46677333-16.89372444 29.70965333z"  horiz-adv-x="1024" />

    
    <glyph glyph-name="xiaolian" unicode="&#58896;" d="M952.5 416.8c-3.4 15.7-0.6 31.1-4.3 45.9-7.7 30.7-14.3 60.4-25.1 86.6-8.2 19.8-14.5 46.7-32.1 57.2-22 13.1-55.2-9-47.6-36.4 3.1-11.3 11.1-21.6 15.6-32 9.1-21 15.1-44.2 21.7-67.6 3.4-11.9 2.2-22.9 5.2-35.5 4.4-18.6 6.1-55.4 1.7-75.4-2.4-11.1 0-20.7-2.6-31.2-8.1-32.2-13.9-62.4-26-90.1-43.3-99.1-118-165.4-219.2-207-20.3-8.3-43.4-11.5-65.8-17.3-6.1-0.6-12.1-1.2-18.2-1.7-28.7-6.7-82.5-3.9-109.2 2.6-18.4 4.5-34.4 5.7-51.1 11.3-61.6 20.5-111.4 52.5-152.5 93.5-7 7-15.7 13.7-21.7 21.7-31.7 42.1-56.8 82.4-75.4 138.6-22.2 67.3-17.7 167.6 5.2 229.5C199.8 640.7 284.9 718.3 425 758c11.4 3.2 21.8 2.3 33.8 5.2 14.5 3.5 31.6 3.5 49.4 3.5 60.1 0 106.4-11.6 148.1-29.4 18.4-7.9 50.1-26.2 66.7-3.5 2.3 3.1 4.8 7.6 6.1 11.3 10.6 31.7-25.5 42.4-43.3 50.2-56 24.5-118.5 37.8-201.8 36.4-2.8-1.8-8.1 0-12.1-0.9-13.3-1.7-26.6-3.5-39.8-5.2-31.8-8.2-62.3-14-90.1-26-118.5-51.3-199-136.1-248.6-256.4C83 518.1 78.7 490 71.7 461.8c-0.9-8.7-1.7-17.3-2.6-26-3.6-15.5-2.6-35.1-2.6-53.7 0-42.9 5.9-80.8 16.5-113.5 7.8-24.1 13.9-45.1 23.4-66.7 41.9-95.2 126.3-176.2 221.8-218.3 29.2-12.9 59.3-21.9 93.6-31.2 13-2 26-4 39-6.1h9.5c13.9-3.2 32.9-1.7 49.4-1.7h19.1c11.5 1.2 23.1 2.3 34.7 3.5 30.5 7.4 60.7 10.6 87.5 21.7 121.5 49.9 208.1 128.4 259.9 247.7 10.5 24.1 16.9 50.9 24.3 78 3.3 12.3 2.1 23.4 5.2 36.4 4 16.9 3.5 37.5 3.5 58-0.5 8.7 0.2 19.7-1.4 26.9zM804.4 644.6c37.9 9.1 35.3 64.9-7.8 65-2.8-1.7-7.1-1.2-10.4-2.6-8.7-3.6-16.4-12.9-19.1-22.5-6-21.8 16.8-44.9 37.3-39.9zM369.5 468.8c19.4 4.1 33 11.5 39.8 27.7 14.5 34-13.5 63.8-46.8 63.2-3.5-2.2-9.1-1.8-13-3.5-10.1-4.3-19.9-14.1-24.3-24.3-11.5-27 6.1-50.7 25.1-58.9 4.1-1.6 12.9-5.6 19.2-4.2z m276.4 90.9c-3.5-2.2-9.1-1.8-13-3.5-11.3-4.9-20.4-15.3-25.1-26.8-10.8-26.8 9.8-49.3 26-56.3 4.1-1.7 12.6-5.5 19.1-4.3 20.3 3.7 33.7 12.7 40.7 29.4 13.9 33.5-16.4 62.1-47.7 61.5zM393.8 201.1c20.8-15.3 44.5-26.7 72.8-34.6 9.1-2.5 16.9-1.2 26.9-3.5 19.3-4.3 45.9 0 60.6 4.3 43.7 12.9 77.3 30.3 101.4 62.4 11.3 15 25.3 29.1 30.3 50.2 6.3 26.6-28.7 45.4-50.2 32-12.3-7.6-17.5-26.6-26-38.1-17.2-23.5-42-36.4-74.5-45-9.4-2.5-28.3-5.2-39.8-2.6-34.1 7.6-62.8 19.7-80.6 43.3-4.4 5.8-9.2 12.1-13 18.2-11.1 18-10.7 28.7-40.7 28.6-3.2-1.2-6.4-2.3-9.5-3.5-6.6-4-13-12.1-15.6-19.9-4.4-13.4 4.1-25.4 8.7-32.9 13.6-22.7 28.2-43.5 49.2-58.9z"  horiz-adv-x="1024" />

    
    <glyph glyph-name="shangjia1" unicode="&#58892;" d="M725.800421 299.16968399999996c-8.084211 7.275789-22.096842 7.814737-30.181053 0.538948A234.819368 234.819368 0 0 0 538.408421 239.02315799999997a233.687579 233.687579 0 0 0-157.210947 61.33221 22.096842 22.096842 0 0 1-29.103158 0c-61.871158-55.781053-148.587789-76.961684-235.250527-47.427368-3.772632 1.131789-9.162105 2.802526-9.162105 3.934316v-279.444211c0-64.673684 47.966316-104.825263 110.376421-104.825263h641.778527c62.517895 0 114.688 40.151579 114.688 104.825263V256.26947399999995c-91.513263-36.271158-184.104421-15.629474-248.724211 42.90021z m-353.226105-332.961684c0-10.563368-19.402105-18.378105-41.445053-18.378105-22.096842 0-41.498947 8.353684-41.498947 18.378105v219.782737c0 10.563368 19.402105 18.378105 41.498947 18.378105 22.096842 0 41.498947-8.353684 41.498948-18.378105v-219.782737zM1070.888421 535.120842c3.233684-13.365895 5.389474-26.192842 5.928421-40.151579 3.772632-92.591158-69.416421-189.062737-157.210947-206.416842-77.500632-15.036632-149.126737 18.432-191.649684 75.88379a22.096842 22.096842 0 0 1-35.570527 0 191.595789 191.595789 0 0 0-153.977263-78.632422 191.595789 191.595789 0 0 0-153.977263 78.686316 22.366316 22.366316 0 0 1-35.570526 0c-45.217684-61.44-123.796211-94.854737-207.818106-71.410526C56.589474 317.06273699999997 0 396.826947 0 487.693474c0 16.168421 1.616842 30.181053 5.928421 46.888421l2.15579 6.144L148.048842 842.428632C163.139368 875.304421 195.476211 896 230.453895 896h613.807158c35.031579 0 66.721684-21.180632 82.351158-53.571368l142.174315-300.624843 2.15579-6.682947z"  horiz-adv-x="1077" />

    
    <glyph glyph-name="licaiTab_pinleirukou-xianghubao" unicode="&#58897;" d="M18.285714 502.857143C18.285714 731.428571 268.8 870.4 462.628571 751.542857l10.971429-5.485714C402.285714 694.857143 287.085714 607.085714 204.8 510.171429c-1.828571-1.828571-3.657143-3.657143-3.657143-5.485715l-1.828571-3.657143-1.828572-3.657142v-1.828572c-1.828571-1.828571-1.828571-3.657143-3.657143-5.485714l-1.828571-1.828572c-1.828571-1.828571-1.828571-3.657143-1.828571-5.485714 0 0 0-1.828571-1.828572-1.828571 0-1.828571-1.828571-3.657143-1.828571-5.485715 0-1.828571 0-1.828571-1.828572-3.657142 0-1.828571-1.828571-3.657143-1.828571-5.485715 0-1.828571 0-3.657143-1.828572-3.657143 0-1.828571 0-3.657143-1.828571-5.485714v-18.285714c0-7.314286 0-12.8 1.828571-20.114286 20.114286-82.285714 153.6-164.571429 243.2-210.285714 53.028571-27.428571 115.2-27.428571 170.057143 0 3.657143 1.828571 9.142857 3.657143 12.8 7.314286 0 0 1.828571 0 1.828572 1.828571 3.657143 1.828571 9.142857 3.657143 12.8 7.314286h1.828571c9.142857 5.485714 18.285714 10.971429 29.257143 16.457143 5.485714 3.657143 9.142857 5.485714 14.628571 9.142857 14.628571 9.142857 31.085714 18.285714 45.714286 29.257143l-5.485714-7.314286c-56.685714-84.114286-140.8-184.685714-263.314286-259.657143 0 0-1.828571 0-1.828571-1.828571C252.342857-93.257143 18.285714 45.714286 18.285714 265.142857v237.714286zM570.514286 757.028571C764.342857 866.742857 1005.714286 727.771429 1005.714286 502.857143v-235.885714C1005.714286 36.571429 755.2-102.4 561.371429 16.457143l-12.8 7.314286c201.142857 160.914286 281.6 373.028571 285.257142 384 0 1.828571 1.828571 3.657143 1.828572 5.485714 0 3.657143 1.828571 5.485714 1.828571 9.142857v3.657143 3.657143 7.314285c0 65.828571-49.371429 117.028571-117.028571 117.028572-43.885714 0-107.885714-40.228571-157.257143-71.314286-29.257143-18.285714-64-21.942857-95.085714-10.971428l-21.942857 10.971428c-1.828571 1.828571-5.485714 3.657143-9.142858 5.485714-1.828571 1.828571-3.657143 1.828571-5.485714 3.657143-1.828571 0-1.828571 1.828571-3.657143 1.828572-1.828571 1.828571-3.657143 1.828571-5.485714 3.657143l-1.828571 1.828571c-1.828571 1.828571-3.657143 3.657143-7.314286 3.657143l-1.828572 1.828571c-1.828571 1.828571-5.485714 3.657143-7.314285 5.485715H402.285714c-1.828571 1.828571-5.485714 3.657143-7.314285 5.485714h-1.828572c-3.657143 1.828571-5.485714 3.657143-9.142857 5.485714-27.428571 14.628571-54.857143 27.428571-78.628571 31.085714 117.028571 111.542857 254.171429 199.314286 256 199.314286 5.485714 1.828571 7.314286 3.657143 9.142857 5.485714z"  horiz-adv-x="1024" />

    
    <glyph glyph-name="licaiTab_pinleirukou-yulibao" unicode="&#58900;" d="M513.828571 896c78.628571 0 151.771429-18.285714 217.6-49.371429C905.142857 764.342857 1024 588.8 1024 384c0-18.285714 0-34.742857-1.828571-51.2 0-3.657143 0-5.485714-1.828572-9.142857-9.142857-82.285714-40.228571-159.085714-84.114286-224.914286 0 0-73.142857-124.342857-237.714285-193.828571 0 0 84.114286 98.742857 12.8 237.714285 0 0 256 351.085714-118.857143 369.371429h1.828571-18.285714-1.828571c-9.142857 0-18.285714 1.828571-25.6 1.828571h-1.828572c-3.657143 0-7.314286 0-9.142857 1.828572-16.457143 1.828571-32.914286 5.485714-47.542857 9.142857-1.828571 0-5.485714 1.828571-7.314286 1.828571h-1.828571c-3.657143 1.828571-7.314286 1.828571-10.971429 3.657143-85.942857 29.257143-148.114286 111.542857-148.114286 206.628572 0 9.142857 0 18.285714 1.828572 23.771428v1.828572c0 3.657143 1.828571 12.8 3.657143 23.771428 1.828571 3.657143 1.828571 9.142857 3.657143 12.8 9.142857 27.428571 21.942857 51.2 38.4 73.142857 38.4 10.971429 78.628571 18.285714 118.857142 20.114286h9.142858c5.485714 3.657143 10.971429 3.657143 16.457142 3.657143zM325.485714 863.085714s-84.114286-98.742857-12.8-237.714285c0 0-256-351.085714 118.857143-369.371429H420.571429h27.428571c9.142857 0 18.285714-1.828571 25.6-1.828571h1.828571c3.657143 0 7.314286 0 9.142858-1.828572 16.457143-1.828571 32.914286-5.485714 47.542857-9.142857 1.828571 0 5.485714-1.828571 7.314285-1.828571h1.828572c3.657143-1.828571 7.314286-1.828571 10.971428-3.657143 85.942857-29.257143 148.114286-111.542857 148.114286-206.628572 0-9.142857 0-18.285714-1.828571-23.771428v-1.828572c0-3.657143-1.828571-12.8-3.657143-23.771428-1.828571-3.657143-1.828571-9.142857-3.657143-12.8-9.142857-27.428571-21.942857-51.2-38.4-73.142857-38.4-10.971429-78.628571-18.285714-118.857143-20.114286h5.485714H512c-78.628571 0-151.771429 18.285714-217.6 49.371428C118.857143 3.657143 0 179.2 0 382.171429c0 18.285714 0 34.742857 1.828571 51.2 0 3.657143 0 5.485714 1.828572 9.142857 9.142857 82.285714 40.228571 159.085714 84.114286 224.914285 1.828571 5.485714 74.971429 128 237.714285 195.657143z"  horiz-adv-x="1024" />

    
    <glyph glyph-name="licaiTab_pinleirukou-jiebei" unicode="&#58901;" d="M513.828571 896c210.285714 0 405.942857-129.828571 486.4-320 49.371429-115.2 21.942857-202.971429-85.942857-283.428571-69.485714-51.2-144.457143-93.257143-228.571428-115.2l-21.942857-5.485715c-10.971429-3.657143-23.771429-5.485714-31.085715 3.657143-12.8 12.8 3.657143 23.771429 10.971429 32.914286 29.257143 49.371429 32.914286 98.742857 5.485714 148.114286-25.6 47.542857-64 73.142857-122.514286 76.8-65.828571 1.828571-115.2-20.114286-148.114285-76.8-29.257143-53.028571-23.771429-104.228571 9.142857-155.428572l5.485714-7.314286c3.657143-5.485714 5.485714-10.971429 0-18.285714-7.314286-9.142857-20.114286-7.314286-31.085714-5.485714C243.2 204.8 137.142857 256 53.028571 347.428571-18.285714 424.228571-7.314286 508.342857 32.914286 594.285714 118.857143 777.142857 309.028571 896 513.828571 896z m14.628572-762.514286c126.171429-3.657143 250.514286-12.8 374.857143-32.914285 32.914286-5.485714 38.4-20.114286 16.457143-45.714286-137.142857-160.914286-362.057143-223.085714-568.685715-153.6-87.771429 29.257143-164.571429 80.457143-223.085714 151.771428l-5.485714 7.314286c-21.942857 27.428571-16.457143 34.742857 23.771428 42.057143 126.171429 20.114286 254.171429 27.428571 382.171429 31.085714z"  horiz-adv-x="1024" />

    
    <glyph glyph-name="zongzichan" unicode="&#59099;" d="M484.224 712.448a356.224 356.224 0 1 1 356.224-356.224H484.224V712.448zM558.976 768v-337.024H896C896 627.712 755.712 768 558.976 768z"  horiz-adv-x="1024" />

    


  </font>
</defs>
</svg>
